<svg xmlns="http://www.w3.org/2000/svg" viewBox="0 0 32 32" fill="none">
  <!-- Background circle with ServiceHub sky-blue -->
  <rect width="32" height="32" rx="8" fill="#0ea5e9"/>
  <!-- Cloud body -->
  <path d="M8 21c-1.7 0-3-1.4-3-3.1 0-1.5 1-2.8 2.4-3.1C7.7 13 9.8 11.5 12 11.5c.5 0 1 .1 1.5.2C14.2 10.1 15.5 9 17 9c2.2 0 4 1.8 4 4 0 .1 0 .2 0 .3 1.5.3 2.6 1.7 2.6 3.2C23.6 18.5 22.2 20 20.5 20H8z" fill="white" opacity="0.95"/>
  <!-- Gear / cog hint on the cloud -->
  <circle cx="20" cy="21.5" r="4.5" fill="white" opacity="0.9"/>
  <circle cx="20" cy="21.5" r="2" fill="#0ea5e9"/>
  <!-- Gear teeth (simplified) -->
  <rect x="19.2" y="16.5" width="1.6" height="1.2" rx="0.4" fill="white" opacity="0.9"/>
  <rect x="19.2" y="25.3" width="1.6" height="1.2" rx="0.4" fill="white" opacity="0.9"/>
  <rect x="15.3" y="20.7" width="1.2" height="1.6" rx="0.4" fill="white" opacity="0.9"/>
  <rect x="23.5" y="20.7" width="1.2" height="1.6" rx="0.4" fill="white" opacity="0.9"/>
</svg>
